<?xml version="1.0" encoding="utf-8"?>
<!-- Generator: Adobe Illustrator 18.1.1, SVG Export Plug-In . SVG Version: 6.00 Build 0)  -->
<svg version="1.1" id="Share" xmlns="http://www.w3.org/2000/svg" xmlns:xlink="http://www.w3.org/1999/xlink" x="0px" y="0px"
	 viewBox="0 90 612 612" enable-background="new 0 90 612 612" xml:space="preserve">
<path fill="#FFFFFF" d="M459,501.4c-19.4,0-36.8,7.5-50.1,19.6L227.2,415.1c1.4-5.8,2.3-11.8,2.3-17.9s-0.9-12.1-2.3-17.8L407,274.5
	c13.6,12.8,31.9,20.7,52,20.7c42.2,0,76.5-34.3,76.5-76.5s-34.3-76.6-76.5-76.6s-76.5,34.3-76.5,76.5c0,6.1,0.9,12.1,2.3,17.8
	L205,341.4c-13.6-12.7-31.9-20.7-52-20.7c-42.2,0-76.5,34.3-76.5,76.5s34.3,76.5,76.5,76.5c20.1,0,38.4-7.9,52-20.7l181.7,106
	c-1.3,5.4-2.1,11-2.1,16.7c0,41.1,33.3,74.3,74.3,74.3s74.3-33.3,74.3-74.3S500.1,501.4,459,501.4z"/>
</svg>
