<?xml version="1.0" encoding="utf-8"?>
<!-- Generator: Adobe Illustrator 18.1.1, SVG Export Plug-In . SVG Version: 6.00 Build 0)  -->
<svg version="1.1" id="Menu" xmlns="http://www.w3.org/2000/svg" xmlns:xlink="http://www.w3.org/1999/xlink" x="0px" y="0px"
	 viewBox="0 90 612 612" enable-background="new 0 90 612 612" xml:space="preserve">
<path d="M501.8,365.4H110.2c-16.9,0-18.4,13.7-18.4,30.6c0,16.9,1.5,30.6,18.4,30.6h391.7c16.9,0,18.4-13.7,18.4-30.6
	S518.7,365.4,501.8,365.4z M501.8,487.8H110.2c-16.9,0-18.4,13.7-18.4,30.6c0,16.9,1.5,30.6,18.4,30.6h391.7
	c16.9,0,18.4-13.7,18.4-30.6C520.2,501.5,518.7,487.8,501.8,487.8z M110.2,304.2h391.7c16.9,0,18.4-13.7,18.4-30.6
	c0-16.9-1.5-30.6-18.4-30.6H110.2c-16.9,0-18.4,13.7-18.4,30.6C91.8,290.5,93.3,304.2,110.2,304.2z"/>
</svg>
