<?xml version="1.0" encoding="utf-8"?>
<!-- Generator: Adobe Illustrator 18.1.1, SVG Export Plug-In . SVG Version: 6.00 Build 0)  -->
<svg version="1.1" id="Magnifying_glass" xmlns="http://www.w3.org/2000/svg" xmlns:xlink="http://www.w3.org/1999/xlink" x="0px"
	 y="0px" viewBox="0 91 612 612" enable-background="new 0 91 612 612" xml:space="preserve">
<path fill="#FFFFFF" d="M536.9,564.2L421.2,448.6c17.4-28.6,27.5-62.3,27.5-98.2c0-104.6-90.6-195.1-195.2-195.1
	C149,155.2,64.3,239.9,64.3,344.5c0,104.5,90.6,195.1,195.1,195.1c34.8,0,67.3-9.5,95.3-25.8L471,630.1c11.4,11.4,29.8,11.4,41.2,0
	l28.9-28.9C552.4,589.9,548.2,575.5,536.9,564.2z M122.5,344.5c0-72.4,58.7-131.1,131-131.1c72.4,0,136.9,64.5,136.9,136.9
	s-58.7,131.1-131.1,131.1C187,481.4,122.5,416.9,122.5,344.5z"/>
</svg>
